<svg xmlns="http://www.w3.org/2000/svg" viewBox="0 0 32 32" fill="none">
    <!-- Painter's palette shape -->
    <path
        d="M16 3C9.373 3 4 8.373 4 15c0 3.5 1.5 6.5 4 8.5v1.5a4 4 0 0 0 4 4h.5a4 4 0 0 0 4-4v-1a2 2 0 0 1 2-2 8 8 0 0 0 8-8c0-5.523-4.477-10-10.5-10z"
        fill="#6366f1" />
    <!-- Color swatches -->
    <circle cx="10" cy="13" r="2.5" fill="#f43f5e" />
    <circle cx="15" cy="9" r="2.5" fill="#f59e0b" />
    <circle cx="21" cy="11" r="2.5" fill="#10b981" />
    <circle cx="22" cy="17" r="2.5" fill="#3b82f6" />
    <!-- Thumb hole -->
    <circle cx="9.5" cy="20.5" r="2" fill="#4f46e5" />
</svg>